<?xml version="1.0" encoding="UTF-8"?><svg xmlns="http://www.w3.org/2000/svg" xmlns:xlink="http://www.w3.org/1999/xlink" fill-opacity="1" color-rendering="auto" color-interpolation="auto" text-rendering="auto" stroke="black" stroke-linecap="square" width="480" stroke-miterlimit="10" shape-rendering="auto" stroke-opacity="1" fill="black" stroke-dasharray="none" font-weight="normal" stroke-width="1" height="559" font-family="'Dialog'" font-style="normal" stroke-linejoin="miter" font-size="12px" stroke-dashoffset="0" image-rendering="auto">
  <!--Generated by ySVG 2.5-->
  <defs id="genericDefs"/>
  <g>
    <defs id="defs1">
      <linearGradient x1="909.0555" gradientUnits="userSpaceOnUse" x2="1029.0555" y1="440.2002" y2="500.2002" id="linearGradient1" spreadMethod="reflect">
        <stop stop-opacity="1" stop-color="rgb(204,255,204)" offset="0%"/>
        <stop stop-opacity="1" stop-color="rgb(153,204,0)" offset="100%"/>
      </linearGradient>
      <linearGradient x1="924.0555" gradientUnits="userSpaceOnUse" x2="1014.0555" y1="261.1876" y2="301.1876" id="linearGradient2" spreadMethod="reflect">
        <stop stop-opacity="1" stop-color="rgb(204,255,255)" offset="0%"/>
        <stop stop-opacity="1" stop-color="rgb(153,204,255)" offset="100%"/>
      </linearGradient>
      <linearGradient x1="975.7725" gradientUnits="userSpaceOnUse" x2="1095.7726" y1="576.8226" y2="636.8226" id="linearGradient3" spreadMethod="reflect">
        <stop stop-opacity="1" stop-color="rgb(204,255,204)" offset="0%"/>
        <stop stop-opacity="1" stop-color="rgb(153,204,0)" offset="100%"/>
      </linearGradient>
      <linearGradient x1="837.3693" gradientUnits="userSpaceOnUse" x2="957.3693" y1="576.8226" y2="636.8226" id="linearGradient4" spreadMethod="reflect">
        <stop stop-opacity="1" stop-color="rgb(204,255,204)" offset="0%"/>
        <stop stop-opacity="1" stop-color="rgb(153,204,0)" offset="100%"/>
      </linearGradient>
      <linearGradient x1="819.0555" gradientUnits="userSpaceOnUse" x2="909.0555" y1="261.1876" y2="301.1876" id="linearGradient5" spreadMethod="reflect">
        <stop stop-opacity="1" stop-color="rgb(255,153,204)" offset="0%"/>
        <stop stop-opacity="1" stop-color="rgb(204,153,255)" offset="100%"/>
      </linearGradient>
      <linearGradient x1="975.7725" gradientUnits="userSpaceOnUse" x2="1095.7726" y1="684.3878" y2="744.3878" id="linearGradient6" spreadMethod="reflect">
        <stop stop-opacity="1" stop-color="rgb(204,255,204)" offset="0%"/>
        <stop stop-opacity="1" stop-color="rgb(153,204,0)" offset="100%"/>
      </linearGradient>
      <linearGradient x1="789.0555" gradientUnits="userSpaceOnUse" x2="879.0555" y1="389.1794" y2="429.1794" id="linearGradient7" spreadMethod="reflect">
        <stop stop-opacity="1" stop-color="rgb(153,204,255)" offset="0%"/>
        <stop stop-opacity="1" stop-color="rgb(0,204,255)" offset="100%"/>
      </linearGradient>
      <linearGradient x1="649.0555" gradientUnits="userSpaceOnUse" x2="739.0555" y1="216.9344" y2="256.9344" id="linearGradient8" spreadMethod="reflect">
        <stop stop-opacity="1" stop-color="rgb(204,255,255)" offset="0%"/>
        <stop stop-opacity="1" stop-color="rgb(153,204,255)" offset="100%"/>
      </linearGradient>
      <linearGradient x1="649.0555" gradientUnits="userSpaceOnUse" x2="744.0555" y1="281.1876" y2="321.1876" id="linearGradient9" spreadMethod="reflect">
        <stop stop-opacity="1" stop-color="rgb(204,255,255)" offset="0%"/>
        <stop stop-opacity="1" stop-color="rgb(153,204,255)" offset="100%"/>
      </linearGradient>
      <linearGradient x1="649.0555" gradientUnits="userSpaceOnUse" x2="744.0555" y1="345.4407" y2="385.4407" id="linearGradient10" spreadMethod="reflect">
        <stop stop-opacity="1" stop-color="rgb(204,255,255)" offset="0%"/>
        <stop stop-opacity="1" stop-color="rgb(153,204,255)" offset="100%"/>
      </linearGradient>
      <linearGradient x1="649.0555" gradientUnits="userSpaceOnUse" x2="744.0555" y1="409.6939" y2="449.6939" id="linearGradient11" spreadMethod="reflect">
        <stop stop-opacity="1" stop-color="rgb(204,255,255)" offset="0%"/>
        <stop stop-opacity="1" stop-color="rgb(153,204,255)" offset="100%"/>
      </linearGradient>
      <linearGradient x1="649.0555" gradientUnits="userSpaceOnUse" x2="749.0555" y1="473.9471" y2="513.9471" id="linearGradient12" spreadMethod="reflect">
        <stop stop-opacity="1" stop-color="rgb(204,255,255)" offset="0%"/>
        <stop stop-opacity="1" stop-color="rgb(153,204,255)" offset="100%"/>
      </linearGradient>
      <linearGradient x1="649.0555" gradientUnits="userSpaceOnUse" x2="744.0555" y1="538.2003" y2="578.2003" id="linearGradient13" spreadMethod="reflect">
        <stop stop-opacity="1" stop-color="rgb(204,255,255)" offset="0%"/>
        <stop stop-opacity="1" stop-color="rgb(153,204,255)" offset="100%"/>
      </linearGradient>
      <clipPath clipPathUnits="userSpaceOnUse" id="clipPath1">
        <path d="M0 0 L480 0 L480 559 L0 559 L0 0 Z"/>
      </clipPath>
      <clipPath clipPathUnits="userSpaceOnUse" id="clipPath2">
        <path d="M631 201 L1111 201 L1111 760 L631 760 L631 201 Z"/>
      </clipPath>
    </defs>
    <g fill="white" text-rendering="geometricPrecision" shape-rendering="geometricPrecision" transform="translate(-631,-201)" stroke="white">
      <rect x="631" width="480" height="559" y="201" clip-path="url(#clipPath2)" stroke="none"/>
    </g>
    <g fill="url(#linearGradient1)" text-rendering="geometricPrecision" shape-rendering="geometricPrecision" transform="matrix(1,0,0,1,-631,-201)" stroke="url(#linearGradient1)">
      <path d="M909.0555 440.2002 L1029.0555 440.2002 L1029.0555 500.2002 L909.0555 500.2002 Z" stroke="none" clip-path="url(#clipPath2)"/>
    </g>
    <g text-rendering="geometricPrecision" stroke-miterlimit="1.45" shape-rendering="geometricPrecision" transform="matrix(1,0,0,1,-631,-201)" stroke-linecap="butt">
      <path fill="none" d="M909.0555 440.2002 L1029.0555 440.2002 L1029.0555 500.2002 L909.0555 500.2002 Z" clip-path="url(#clipPath2)"/>
      <text x="945.2635" xml:space="preserve" y="474.3545" clip-path="url(#clipPath2)" font-family="sans-serif" stroke="none">UTENTE</text>
    </g>
    <g fill="url(#linearGradient2)" text-rendering="geometricPrecision" shape-rendering="geometricPrecision" transform="matrix(1,0,0,1,-631,-201)" stroke="url(#linearGradient2)">
      <ellipse rx="45" ry="20" clip-path="url(#clipPath2)" cx="969.0555" cy="281.1876" stroke="none"/>
    </g>
    <g text-rendering="geometricPrecision" stroke-miterlimit="1.45" shape-rendering="geometricPrecision" transform="matrix(1,0,0,1,-631,-201)" stroke-linecap="butt">
      <ellipse rx="45" fill="none" ry="20" clip-path="url(#clipPath2)" cx="969.0555" cy="281.1876"/>
      <text x="934.2713" xml:space="preserve" y="285.3419" clip-path="url(#clipPath2)" font-family="sans-serif" stroke="none">PASSWORD</text>
    </g>
    <g fill="url(#linearGradient3)" text-rendering="geometricPrecision" shape-rendering="geometricPrecision" transform="matrix(1,0,0,1,-631,-201)" stroke="url(#linearGradient3)">
      <path d="M975.7725 576.8226 L1095.7726 576.8226 L1095.7726 636.8226 L975.7725 636.8226 Z" stroke="none" clip-path="url(#clipPath2)"/>
    </g>
    <g text-rendering="geometricPrecision" stroke-miterlimit="1.45" shape-rendering="geometricPrecision" transform="matrix(1,0,0,1,-631,-201)" stroke-linecap="butt">
      <path fill="none" d="M975.7725 576.8226 L1095.7726 576.8226 L1095.7726 636.8226 L975.7725 636.8226 Z" clip-path="url(#clipPath2)"/>
      <text x="1013.7413" xml:space="preserve" y="610.9769" clip-path="url(#clipPath2)" font-family="sans-serif" stroke="none">ATTIVO</text>
    </g>
    <g fill="url(#linearGradient4)" text-rendering="geometricPrecision" shape-rendering="geometricPrecision" transform="matrix(1,0,0,1,-631,-201)" stroke="url(#linearGradient4)">
      <path d="M837.3693 576.8226 L957.3693 576.8226 L957.3693 636.8226 L837.3693 636.8226 Z" stroke="none" clip-path="url(#clipPath2)"/>
    </g>
    <g text-rendering="geometricPrecision" stroke-miterlimit="1.45" shape-rendering="geometricPrecision" transform="matrix(1,0,0,1,-631,-201)" stroke-linecap="butt">
      <path fill="none" d="M837.3693 576.8226 L957.3693 576.8226 L957.3693 636.8226 L837.3693 636.8226 Z" clip-path="url(#clipPath2)"/>
      <text x="871.4327" xml:space="preserve" y="610.9769" clip-path="url(#clipPath2)" font-family="sans-serif" stroke="none">PASSIVO</text>
    </g>
    <g fill="url(#linearGradient5)" text-rendering="geometricPrecision" shape-rendering="geometricPrecision" transform="matrix(1,0,0,1,-631,-201)" stroke="url(#linearGradient5)">
      <ellipse rx="45" ry="20" clip-path="url(#clipPath2)" cx="864.0555" cy="281.1876" stroke="none"/>
    </g>
    <g text-rendering="geometricPrecision" stroke-miterlimit="1.45" shape-rendering="geometricPrecision" transform="matrix(1,0,0,1,-631,-201)" stroke-linecap="butt">
      <ellipse rx="45" fill="none" ry="20" clip-path="url(#clipPath2)" cx="864.0555" cy="281.1876"/>
      <text x="843.2869" y="285.3419" clip-path="url(#clipPath2)" font-family="sans-serif" stroke="none" font-weight="bold" xml:space="preserve">EMAIL</text>
      <line y2="288.1719" fill="none" x1="843.2869" clip-path="url(#clipPath2)" x2="884.824" y1="288.1719"/>
    </g>
    <g fill="url(#linearGradient6)" text-rendering="geometricPrecision" shape-rendering="geometricPrecision" transform="matrix(1,0,0,1,-631,-201)" stroke="url(#linearGradient6)">
      <path d="M975.7725 684.3878 L1095.7726 684.3878 L1095.7726 744.3878 L975.7725 744.3878 Z" stroke="none" clip-path="url(#clipPath2)"/>
    </g>
    <g text-rendering="geometricPrecision" stroke-miterlimit="1.45" shape-rendering="geometricPrecision" transform="matrix(1,0,0,1,-631,-201)" stroke-linecap="butt">
      <path fill="none" d="M975.7725 684.3878 L1095.7726 684.3878 L1095.7726 744.3878 L975.7725 744.3878 Z" clip-path="url(#clipPath2)"/>
      <text x="992.8409" xml:space="preserve" y="718.5421" clip-path="url(#clipPath2)" font-family="sans-serif" stroke="none">MODERATORE</text>
    </g>
    <g fill="url(#linearGradient7)" text-rendering="geometricPrecision" shape-rendering="geometricPrecision" transform="matrix(1,0,0,1,-631,-201)" stroke="url(#linearGradient7)">
      <ellipse rx="45" ry="20" clip-path="url(#clipPath2)" cx="834.0555" cy="409.1794" stroke="none"/>
    </g>
    <g text-rendering="geometricPrecision" stroke-miterlimit="1.45" shape-rendering="geometricPrecision" transform="matrix(1,0,0,1,-631,-201)" stroke-linecap="butt">
      <ellipse rx="45" fill="none" ry="20" clip-path="url(#clipPath2)" cx="834.0555" cy="409.1794"/>
      <text x="794.9207" xml:space="preserve" y="413.3337" clip-path="url(#clipPath2)" font-family="sans-serif" stroke="none">ANAGRAFICA</text>
    </g>
    <g fill="url(#linearGradient8)" text-rendering="geometricPrecision" shape-rendering="geometricPrecision" transform="matrix(1,0,0,1,-631,-201)" stroke="url(#linearGradient8)">
      <ellipse rx="45" ry="20" clip-path="url(#clipPath2)" cx="694.0555" cy="236.9344" stroke="none"/>
    </g>
    <g text-rendering="geometricPrecision" stroke-miterlimit="1.45" shape-rendering="geometricPrecision" transform="matrix(1,0,0,1,-631,-201)" stroke-linecap="butt">
      <ellipse rx="45" fill="none" ry="20" clip-path="url(#clipPath2)" cx="694.0555" cy="236.9344"/>
      <text x="675.8768" xml:space="preserve" y="241.0887" clip-path="url(#clipPath2)" font-family="sans-serif" stroke="none">NOME</text>
    </g>
    <g fill="url(#linearGradient9)" text-rendering="geometricPrecision" shape-rendering="geometricPrecision" transform="matrix(1,0,0,1,-631,-201)" stroke="url(#linearGradient9)">
      <ellipse rx="47.5" ry="20" clip-path="url(#clipPath2)" cx="696.5555" cy="301.1876" stroke="none"/>
    </g>
    <g text-rendering="geometricPrecision" stroke-miterlimit="1.45" shape-rendering="geometricPrecision" transform="matrix(1,0,0,1,-631,-201)" stroke-linecap="butt">
      <ellipse rx="47.5" fill="none" ry="20" clip-path="url(#clipPath2)" cx="696.5555" cy="301.1876"/>
      <text x="664.8152" xml:space="preserve" y="305.3419" clip-path="url(#clipPath2)" font-family="sans-serif" stroke="none">COGNOME</text>
    </g>
    <g fill="url(#linearGradient10)" text-rendering="geometricPrecision" shape-rendering="geometricPrecision" transform="matrix(1,0,0,1,-631,-201)" stroke="url(#linearGradient10)">
      <ellipse rx="47.5" ry="20" clip-path="url(#clipPath2)" cx="696.5555" cy="365.4407" stroke="none"/>
    </g>
    <g text-rendering="geometricPrecision" stroke-miterlimit="1.45" shape-rendering="geometricPrecision" transform="matrix(1,0,0,1,-631,-201)" stroke-linecap="butt">
      <ellipse rx="47.5" fill="none" ry="20" clip-path="url(#clipPath2)" cx="696.5555" cy="365.4407"/>
      <text x="688.9149" xml:space="preserve" y="369.595" clip-path="url(#clipPath2)" font-family="sans-serif" stroke="none">CF</text>
    </g>
    <g fill="url(#linearGradient11)" text-rendering="geometricPrecision" shape-rendering="geometricPrecision" transform="matrix(1,0,0,1,-631,-201)" stroke="url(#linearGradient11)">
      <ellipse rx="47.5" ry="20" clip-path="url(#clipPath2)" cx="696.5555" cy="429.6939" stroke="none"/>
    </g>
    <g text-rendering="geometricPrecision" stroke-miterlimit="1.45" shape-rendering="geometricPrecision" transform="matrix(1,0,0,1,-631,-201)" stroke-linecap="butt">
      <ellipse rx="47.5" fill="none" ry="20" clip-path="url(#clipPath2)" cx="696.5555" cy="429.6939"/>
      <text x="650.9315" xml:space="preserve" y="433.8482" clip-path="url(#clipPath2)" font-family="sans-serif" stroke="none">DATA_NASCITA</text>
    </g>
    <g fill="url(#linearGradient12)" text-rendering="geometricPrecision" shape-rendering="geometricPrecision" transform="matrix(1,0,0,1,-631,-201)" stroke="url(#linearGradient12)">
      <ellipse rx="50" ry="20" clip-path="url(#clipPath2)" cx="699.0555" cy="493.9471" stroke="none"/>
    </g>
    <g text-rendering="geometricPrecision" stroke-miterlimit="1.45" shape-rendering="geometricPrecision" transform="matrix(1,0,0,1,-631,-201)" stroke-linecap="butt">
      <ellipse rx="50" fill="none" ry="20" clip-path="url(#clipPath2)" cx="699.0555" cy="493.9471"/>
      <text x="648.0965" xml:space="preserve" y="498.1013" clip-path="url(#clipPath2)" font-family="sans-serif" stroke="none">LUOGO_NASCITA</text>
    </g>
    <g fill="url(#linearGradient13)" text-rendering="geometricPrecision" shape-rendering="geometricPrecision" transform="matrix(1,0,0,1,-631,-201)" stroke="url(#linearGradient13)">
      <ellipse rx="47.5" ry="20" clip-path="url(#clipPath2)" cx="696.5555" cy="558.2002" stroke="none"/>
    </g>
    <g text-rendering="geometricPrecision" stroke-miterlimit="1.45" shape-rendering="geometricPrecision" transform="matrix(1,0,0,1,-631,-201)" stroke-linecap="butt">
      <ellipse rx="47.5" fill="none" ry="20" clip-path="url(#clipPath2)" cx="696.5555" cy="558.2002"/>
      <text x="655.8856" xml:space="preserve" y="562.3546" clip-path="url(#clipPath2)" font-family="sans-serif" stroke="none">NAZIONALITÀ</text>
    </g>
    <g text-rendering="geometricPrecision" stroke-miterlimit="1.45" shape-rendering="geometricPrecision" transform="matrix(1,0,0,1,-631,-201)" stroke-linecap="butt">
      <path fill="none" d="M969.0555 440.1594 L969.0555 301.1755" clip-path="url(#clipPath2)"/>
    </g>
    <g text-rendering="geometricPrecision" stroke-miterlimit="1.45" shape-rendering="geometricPrecision" transform="matrix(1,0,0,1,-631,-201)" stroke-linecap="butt">
      <path fill="none" d="M1035.7726 576.8137 L1035.7726 550.9007 L969.0555 550.9007 L969.0555 511.1871" clip-path="url(#clipPath2)"/>
      <path d="M969.0555 500.1871 L963.0555 512.1871 L975.0555 512.1871 Z" clip-path="url(#clipPath2)" stroke="none"/>
      <path fill="none" d="M897.3693 576.8137 L897.3693 550.9007 L969.0555 550.9007 L969.0555 511.1871" clip-path="url(#clipPath2)"/>
      <path d="M969.0555 500.1871 L963.0555 512.1871 L975.0555 512.1871 Z" clip-path="url(#clipPath2)" stroke="none"/>
      <path fill="none" d="M952.3801 440.1825 L874.8589 300.6349" clip-path="url(#clipPath2)"/>
      <path fill="none" d="M1035.7726 684.3715 L1035.7726 651.8501" clip-path="url(#clipPath2)"/>
      <path fill="white" d="M1035.7726 636.8501 L1029.7726 652.8501 L1041.7726 652.8501 Z" clip-path="url(#clipPath2)" stroke="none"/>
      <path fill="none" d="M1035.7726 636.8501 L1029.7726 652.8501 L1041.7726 652.8501 Z" clip-path="url(#clipPath2)"/>
      <path fill="none" d="M865.5972 423.4365 L909.0669 443.085" clip-path="url(#clipPath2)"/>
      <path fill="none" d="M739.055 239 L771.5 239 L771.5 409 L789.055 409" clip-path="url(#clipPath2)"/>
      <path fill="none" d="M744.055 299 L771.5 299 L771.5 409 L789.055 409" clip-path="url(#clipPath2)"/>
      <path fill="none" d="M744.055 369 L771.5 369 L771.5 409 L789.055 409" clip-path="url(#clipPath2)"/>
      <path fill="none" d="M744.055 429 L771.5 429 L771.5 409 L789.055 409" clip-path="url(#clipPath2)"/>
      <path fill="none" d="M749.055 489 L771.5 489 L771.5 409 L789.055 409" clip-path="url(#clipPath2)"/>
      <path fill="none" d="M744.055 559 L771.5 559 L771.5 409 L789.055 409" clip-path="url(#clipPath2)"/>
    </g>
  </g>
</svg>
